<svg width="150" height="60" viewBox="0 0 150 60" fill="none" xmlns="http://www.w3.org/2000/svg">
<path d="M44.1514 31.7943C44.1514 32.0444 43.9399 32.2559 43.6759 32.2559H34.9275C35.1513 34.4202 36.7754 36.3993 39.0709 36.3993C40.6409 36.3993 41.8018 35.805 42.6725 34.5515C42.7651 34.4202 42.8963 34.3276 43.0553 34.3276C43.3054 34.3276 43.4906 34.5129 43.4906 34.763C43.4906 34.8556 43.4644 34.922 43.4243 34.9868C42.5397 36.5167 40.786 37.27 39.0694 37.27C36.127 37.27 34.0151 34.6317 34.0151 31.8206C34.0151 29.0094 36.1131 26.3712 39.0694 26.3712C42.0256 26.3712 44.1359 28.9832 44.1498 31.7943H44.1514ZM43.2143 31.3852C43.0291 29.2209 41.3665 27.2418 39.0709 27.2418C36.7754 27.2418 35.1529 29.2209 34.9275 31.3852H43.2143ZM54.7723 26.5827C55.0224 26.5827 55.2077 26.8065 55.2077 27.018C55.2077 27.2681 55.0224 27.4533 54.7723 27.4533H52.4243V36.6757C52.4243 36.8995 52.239 37.111 51.989 37.111C51.7389 37.111 51.5536 36.8871 51.5536 36.6757V27.4533H49.2967C49.0466 27.4533 48.8613 27.2681 48.8613 27.018C48.8613 26.7941 49.0466 26.5827 49.2967 26.5827H51.5536V23.2188C51.5536 22.995 51.725 22.7835 51.9488 22.7573C52.2252 22.731 52.4366 22.9286 52.4366 23.1926V26.5842H54.7723V26.5827ZM69.1014 31.0425V36.6232C69.1014 36.8733 68.8775 37.0585 68.666 37.0585C68.416 37.0585 68.2307 36.8733 68.2307 36.6232V31.0425C68.2307 29.1561 67.1624 27.282 65.0645 27.282C62.3722 27.282 61.2113 29.63 61.3703 32.0444C61.3703 32.1108 61.3965 32.3871 61.3965 32.4273V36.6093C61.3965 36.8331 61.2252 37.0446 61.0013 37.0709C60.725 37.0971 60.5135 36.8995 60.5135 36.6355V18.2835C60.5135 18.0596 60.6988 17.8481 60.9489 17.8481C61.1989 17.8481 61.3842 18.072 61.3842 18.2835V28.6544C62.136 27.3082 63.4821 26.3974 65.0521 26.3974C67.6379 26.3974 69.1029 28.6544 69.1029 31.0425H69.1014ZM84.8152 31.7943C84.8152 32.0444 84.6037 32.2559 84.3397 32.2559H75.5913C75.8151 34.4202 77.4391 36.3993 79.7347 36.3993C81.3047 36.3993 82.4656 35.805 83.3363 34.5515C83.4289 34.4202 83.5601 34.3276 83.7191 34.3276C83.9692 34.3276 84.1544 34.5129 84.1544 34.763C84.1544 34.8556 84.1282 34.922 84.0881 34.9868C83.2035 36.5167 81.4498 37.27 79.7332 37.27C76.7908 37.27 74.6789 34.6317 74.6789 31.8206C74.6789 29.0094 76.7769 26.3712 79.7332 26.3712C82.6894 26.3712 84.7874 28.9832 84.8136 31.7943H84.8152ZM83.8658 31.3852C83.6805 29.2209 82.0179 27.2418 79.7223 27.2418C77.4268 27.2418 75.8043 29.2209 75.5789 31.3852H83.8658ZM95.5565 26.9917C95.5565 27.2681 95.3975 27.4271 95.1474 27.4672C92.574 27.8501 91.4131 29.948 91.4131 32.3887V36.5707C91.4131 36.7945 91.2418 37.006 91.0179 37.0323C90.7416 37.0585 90.5301 36.8609 90.5301 36.5969V27.0581C90.5301 26.8343 90.7015 26.6228 90.9253 26.5965C91.2016 26.5703 91.4131 26.7679 91.4131 27.0319V28.9708C92.1387 27.7436 93.5775 26.5827 95.0811 26.5827C95.3049 26.5827 95.5565 26.7417 95.5565 26.9917ZM109.952 31.7943C109.952 32.0444 109.74 32.2559 109.476 32.2559H100.728C100.952 34.4202 102.576 36.3993 104.871 36.3993C106.441 36.3993 107.602 35.805 108.473 34.5515C108.566 34.4202 108.697 34.3276 108.856 34.3276C109.106 34.3276 109.291 34.5129 109.291 34.763C109.291 34.8556 109.265 34.922 109.225 34.9868C108.34 36.5167 106.587 37.27 104.87 37.27C101.928 37.27 99.8157 34.6317 99.8157 31.8206C99.8157 29.0094 101.914 26.3712 104.87 26.3712C107.826 26.3712 109.937 28.9832 109.95 31.7943H109.952ZM109.015 31.3852C108.83 29.2209 107.167 27.2418 104.871 27.2418C102.576 27.2418 100.953 29.2209 100.728 31.3852H109.015ZM124.096 27.0967V36.6757C124.096 36.9257 123.872 37.111 123.66 37.111C123.41 37.111 123.225 36.9257 123.225 36.6757V34.8556C122.5 36.2944 121.22 37.3364 119.583 37.3364C116.984 37.3364 115.547 35.0794 115.547 32.6913V27.0844C115.547 26.8605 115.732 26.649 115.982 26.649C116.232 26.649 116.417 26.8729 116.417 27.0844V32.6913C116.417 34.5777 117.485 36.4518 119.583 36.4518C122.526 36.4518 123.225 33.6947 123.225 30.6458V27.0705C123.225 26.8065 123.501 26.5425 123.819 26.6614C123.978 26.7401 124.096 26.9115 124.096 27.0967ZM146.249 31.0024V36.6093C146.249 36.8594 146.025 37.0446 145.813 37.0446C145.563 37.0446 145.378 36.8594 145.378 36.6093V31.0024C145.378 29.1159 144.31 27.2681 142.212 27.2681C139.573 27.2681 138.57 30.0916 138.57 32.2822V36.6093C138.57 36.8594 138.346 37.0446 138.135 37.0446C137.884 37.0446 137.699 36.8594 137.699 36.6093V31.0024C137.699 29.1159 136.631 27.2681 134.533 27.2681C131.869 27.2681 130.772 29.366 130.865 32.1633C130.865 32.2297 130.891 32.3485 130.865 32.3871V36.5954C130.865 36.8192 130.694 37.0307 130.47 37.057C130.194 37.0832 129.982 36.8856 129.982 36.6216V27.055C129.982 26.8312 130.153 26.6197 130.377 26.5935C130.654 26.5672 130.865 26.7648 130.865 27.0288V28.625C131.617 27.2789 132.963 26.3959 134.533 26.3959C136.315 26.3959 137.699 27.5305 138.267 29.1792C138.993 27.5429 140.405 26.3959 142.213 26.3959C144.787 26.3959 146.25 28.625 146.25 31.0009L146.249 31.0024Z" fill="#3B3B3B"/>
<path opacity="0.6" d="M14.7013 35.9096L25.6665 29.4305L14.7013 24.4565L3.75 29.432L14.7013 35.9111V35.9096Z" fill="black"/>
<path opacity="0.45" d="M14.7013 24.4583V11.25L3.75 29.4322L14.7013 35.9113V24.4583Z" fill="black"/>
<path opacity="0.8" d="M14.7012 35.9098L25.6664 29.4307L14.7012 11.25V35.9098Z" fill="black"/>
<path opacity="0.45" d="M14.7013 37.9813L3.75 31.5161L14.7013 46.9536V37.9813Z" fill="black"/>
<path opacity="0.8" d="M25.6664 31.5161L14.7012 37.9813V46.9536L25.6664 31.5161Z" fill="black"/>
</svg>
