<svg width="24" height="24" viewBox="0 0 24 24" fill="none" xmlns="http://www.w3.org/2000/svg">
<path fill-rule="evenodd" clip-rule="evenodd" d="M12 24C18.6274 24 24 18.6274 24 12C24 5.37258 18.6274 0 12 0C5.37258 0 0 5.37258 0 12C0 18.6274 5.37258 24 12 24ZM13.9301 6.0138C13.6344 6.0054 13.2918 6.0018 12.6168 6L11.3833 6.0006C10.9457 5.99914 10.508 6.00374 10.0705 6.0144L9.95414 6.018C9.81975 6.0228 9.68656 6.0288 9.52697 6.036C8.888 6.066 8.45302 6.1668 8.07024 6.31499C7.67015 6.46558 7.30773 6.70167 7.00829 7.00678C6.70214 7.30618 6.46539 7.6691 6.31473 8.06995C6.16654 8.45274 6.06574 8.88773 6.03574 9.52672L6.03544 9.53345C6.02838 9.69005 6.02248 9.82082 6.01775 9.95391L6.01355 10.0703C6.00307 10.5078 5.99867 10.9454 6.00035 11.3831V12.6166C5.99929 13.0543 6.00429 13.4919 6.01535 13.9294L6.01835 14.0458C6.02366 14.1882 6.02966 14.3306 6.03634 14.473C6.06634 15.112 6.16714 15.5476 6.31533 15.9298C6.46606 16.3303 6.70234 16.6931 7.00769 16.9929C7.30721 17.2982 7.66986 17.5344 8.07024 17.6847C8.45302 17.8329 8.8886 17.9337 9.52697 17.9637C9.66932 17.9707 9.81172 17.9769 9.95414 17.9823L10.0705 17.9859C10.5082 17.9966 10.946 18.0012 11.3839 17.9997H12.1692L12.6168 17.9991C13.2918 17.9979 13.6344 17.9937 13.9301 17.9853L14.0465 17.9817C14.189 17.9764 14.3313 17.9704 14.4737 17.9637C15.1121 17.9337 15.5477 17.8329 15.9298 17.6847C16.3302 17.534 16.693 17.2979 16.993 16.9929C17.2984 16.6933 17.5346 16.3304 17.6847 15.9298C17.8323 15.547 17.9343 15.112 17.9643 14.473L17.9647 14.4658C17.9717 14.3094 17.9776 14.1788 17.9823 14.0458L17.9859 13.9294C17.9966 13.4919 18.0012 13.0543 17.9997 12.6166V11.8307L17.9991 11.3831C17.9979 10.7081 17.9943 10.3655 17.9853 10.0703L17.9817 9.95391C17.977 9.82059 17.9711 9.68962 17.964 9.53268L17.9637 9.52672C17.9337 8.88773 17.8329 8.45214 17.6847 8.06995C17.5341 7.66951 17.2981 7.30671 16.993 7.00678C16.6594 6.67378 16.3258 6.46739 15.9298 6.31499C15.5477 6.1668 15.1121 6.066 14.4737 6.036L14.4592 6.03535C14.3055 6.02844 14.1768 6.02265 14.0465 6.018L13.9301 6.0138ZM9.87883 9.87859C10.4414 9.31599 11.2044 8.99993 12 8.99993C12.7956 8.99993 13.5587 9.31599 14.1213 9.87859C14.6838 10.4412 14.9999 11.2042 14.9999 11.9999C14.9999 12.7955 14.6838 13.5585 14.1213 14.1211C13.5587 14.6837 12.7956 14.9998 12 14.9998C11.2044 14.9998 10.4414 14.6837 9.87883 14.1211C9.31625 13.5585 9.00019 12.7955 9.00019 11.9999C9.00019 11.2042 9.31625 10.4412 9.87883 9.87859ZM12.6889 10.3368C12.4707 10.2465 12.2368 10.1999 12.0006 10.1999C11.5233 10.1999 11.0655 10.3895 10.7279 10.7271C10.3904 11.0647 10.2007 11.5225 10.2007 11.9999C10.2007 12.4772 10.3904 12.9351 10.7279 13.2726C11.0655 13.6102 11.5233 13.7998 12.0006 13.7998C12.237 13.7998 12.4711 13.7532 12.6894 13.6627C12.9078 13.5722 13.1062 13.4396 13.2733 13.2724C13.4404 13.1052 13.5729 12.9068 13.6634 12.6884C13.7538 12.47 13.8003 12.2359 13.8002 11.9996C13.8002 11.7632 13.7536 11.5291 13.6631 11.3108C13.5726 11.0924 13.44 10.894 13.2729 10.7269C13.1057 10.5598 12.9072 10.4272 12.6889 10.3368ZM14.6202 8.31962C14.7608 8.17897 14.9516 8.09995 15.1505 8.09995C15.3494 8.09995 15.5401 8.17897 15.6808 8.31962C15.8214 8.46026 15.9004 8.65103 15.9004 8.84993C15.9004 9.04884 15.8214 9.2396 15.6808 9.38025C15.5401 9.5209 15.3494 9.59992 15.1505 9.59992C14.9516 9.59992 14.7608 9.5209 14.6202 9.38025C14.4795 9.2396 14.4005 9.04884 14.4005 8.84993C14.4005 8.65103 14.4795 8.46026 14.6202 8.31962Z" fill="#F5FEFF"/>
</svg>
