<svg width="105" height="38" viewBox="0 0 105 38" fill="none" xmlns="http://www.w3.org/2000/svg">
<path fill-rule="evenodd" clip-rule="evenodd" d="M5.11196 34.1742C4.81875 33.4987 4.02513 32.7537 3.29001 32.6786C4.06657 29.3906 5.77812 26.1703 8.61874 24.341C6.27833 26.8169 4.864 30.7284 5.11196 34.1742ZM9.6223 3.16577C8.1484 2.33538 6.81742 1.26674 5.68478 0C5.33713 1.73522 5.79372 3.51631 6.89281 4.86173C6.07319 5.56485 5.35081 6.4032 4.76186 7.36452C4.76186 7.36452 4.07111 8.85455 2.68962 11.8339C2.68962 11.8339 2.75201 12.3084 2.87702 13.257C1.01287 17.0355 0.0808471 18.9246 0.0808471 18.9246C-0.17113 19.957 0.165898 21.2596 1.09195 22.832C2.59048 23.0158 3.95945 23.0158 5.19872 22.832C5.56848 21.4932 6.09674 19.4606 7.05851 19.21C10.342 18.9771 11.8026 17.5874 11.44 15.0404C16.0999 20.0859 2.19839 23.8039 1.99071 33.4559C3.25019 33.6407 4.20828 34.6821 4.28769 35.9528H3.51353C2.95051 35.9528 2.4899 36.4133 2.4899 36.9766C2.4899 37.5394 2.95051 38 3.51353 38H19.9158C20.4788 38 20.9394 37.5394 20.9394 36.9766C20.9394 36.4133 20.4788 35.9528 19.9158 35.9528H19.1421C19.4174 34.5272 20.5983 33.4532 22.0434 33.3141C21.6136 25.9026 23.0846 21.4642 24.2101 14.5805C25.0187 9.59442 22.1877 4.7327 17.4523 2.9759C14.8366 2.00539 12.0434 2.13204 9.6223 3.16577Z" fill="#D37D18"/>
<path d="M104.557 5.20307V7.97088H101.319V17.7837H98.4415V7.97088H95.2038V5.20307H104.557ZM88.9415 5.20307H91.8194V17.7837H88.9415V12.7876H84.9843V17.7837H82.1063V5.20307H84.9843V10.0197H88.9415V5.20307ZM78.3623 10.7747V11.8529C78.3623 13.734 77.7778 15.2347 76.6086 16.3549C75.4394 17.4754 73.9554 18.0355 72.1568 18.0355C70.2021 18.0355 68.5803 17.4065 67.2913 16.1484C66.0022 14.8902 65.3577 13.3445 65.3577 11.5114C65.3577 9.67829 65.9962 8.12666 67.2733 6.85678C68.5504 5.58657 70.1123 4.95166 71.9589 4.95166C73.1342 4.95166 74.2103 5.2151 75.1876 5.74236C76.1649 6.26955 76.9234 6.96456 77.463 7.82726L75.0168 9.22918C74.741 8.79767 74.3303 8.44418 73.7847 8.16871C73.239 7.89292 72.6245 7.75519 71.941 7.75519C70.8737 7.75519 69.9894 8.10868 69.2878 8.81566C68.5864 9.52263 68.2356 10.4273 68.2356 11.5294C68.2356 12.6199 68.5954 13.5094 69.3149 14.1984C70.0344 14.8873 70.9937 15.2317 72.1928 15.2317C73.8596 15.2317 74.9328 14.5848 75.4125 13.2909H72.0489V10.7748L78.3623 10.7747ZM58.7356 5.20307H61.6135V17.7837H58.7356V5.20307ZM51.574 5.20307H54.4519V17.7837H52.2935L47.4369 10.9545V17.7837H44.559V5.20307H46.7174L51.574 12.0326V5.20307ZM41.3545 17.7837H38.0809L34.0517 11.9726V17.7837H31.1738V5.20307H34.0517V10.6667L37.901 5.20307H41.1746L36.9297 11.3316L41.3545 17.7837Z" fill="white"/>
<path d="M83.7985 33.0487C82.8563 33.0487 82.0634 32.8381 81.4201 32.4165C80.7769 31.9954 80.324 31.4221 80.0613 30.6977L81.6649 29.76C82.0363 30.7294 82.7657 31.2138 83.8529 31.2138C84.3784 31.2138 84.7635 31.1188 85.008 30.9288C85.2526 30.7382 85.3749 30.4983 85.3749 30.2083C85.3749 29.8733 85.2254 29.6128 84.9264 29.4266C84.6275 29.2411 84.0929 29.0395 83.3227 28.8223C82.8969 28.6951 82.5367 28.5684 82.2424 28.4417C81.9479 28.3145 81.6535 28.1451 81.359 27.9318C81.0644 27.719 80.8403 27.4496 80.6862 27.1235C80.5322 26.7975 80.4552 26.4169 80.4552 25.9819C80.4552 25.1209 80.7611 24.4348 81.3726 23.9226C81.9841 23.4109 82.7204 23.1554 83.581 23.1554C84.3512 23.1554 85.0283 23.3431 85.6128 23.7192C86.1971 24.0948 86.6524 24.618 86.9786 25.2886L85.4022 26.1991C85.0216 25.3836 84.4145 24.9764 83.581 24.9764C83.1915 24.9764 82.8858 25.0642 82.6637 25.2414C82.4416 25.4181 82.3307 25.6464 82.3307 25.9274C82.3307 26.2263 82.4551 26.4686 82.7044 26.6547C82.9536 26.8403 83.4315 27.0418 84.1383 27.259C84.4282 27.3502 84.6479 27.4201 84.7975 27.4701C84.9469 27.5196 85.1507 27.5967 85.409 27.7006C85.6674 27.805 85.8665 27.9022 86.0071 27.9928C86.1474 28.0839 86.3083 28.2061 86.4895 28.36C86.6708 28.514 86.809 28.6728 86.9041 28.8356C86.9992 28.999 87.0808 29.1956 87.1487 29.4266C87.2167 29.6577 87.2505 29.9094 87.2505 30.1811C87.2505 31.06 86.9312 31.7576 86.2925 32.2743C85.6536 32.7904 84.8223 33.0487 83.7985 33.0487ZM72.3343 33.0487C71.3921 33.0487 70.5993 32.8381 69.956 32.4165C69.3127 31.9954 68.8598 31.4221 68.5971 30.6977L70.2007 29.76C70.5721 30.7294 71.3016 31.2138 72.3887 31.2138C72.9142 31.2138 73.2992 31.1188 73.5438 30.9288C73.7884 30.7382 73.9107 30.4983 73.9107 30.2083C73.9107 29.8733 73.7612 29.6128 73.4622 29.4266C73.1632 29.2411 72.6287 29.0395 71.8585 28.8223C71.4327 28.6951 71.0726 28.5684 70.7781 28.4417C70.4837 28.3145 70.1892 28.1451 69.8947 27.9318C69.6001 27.719 69.376 27.4496 69.2219 27.1235C69.0679 26.7975 68.991 26.4169 68.991 25.9819C68.991 25.1209 69.2968 24.4348 69.9083 23.9226C70.5199 23.4109 71.2561 23.1554 72.1167 23.1554C72.8868 23.1554 73.564 23.3431 74.1484 23.7192C74.7328 24.0948 75.188 24.618 75.5143 25.2886L73.9378 26.1991C73.5573 25.3836 72.9502 24.9764 72.1167 24.9764C71.7271 24.9764 71.4214 25.0642 71.1994 25.2414C70.9773 25.4181 70.8664 25.6464 70.8664 25.9274C70.8664 26.2263 70.991 26.4686 71.2402 26.6547C71.4892 26.8403 71.9672 27.0418 72.6739 27.259C72.9638 27.3502 73.1835 27.4201 73.3331 27.4701C73.4825 27.5196 73.6864 27.5967 73.9447 27.7006C74.203 27.805 74.4021 27.9022 74.5427 27.9928C74.6831 28.0839 74.8439 28.2061 75.0251 28.36C75.2062 28.514 75.3446 28.6728 75.4396 28.8356C75.5347 28.999 75.6163 29.1956 75.6842 29.4266C75.7521 29.6577 75.7861 29.9094 75.7861 30.1811C75.7861 31.06 75.4667 31.7576 74.8279 32.2743C74.1895 32.7904 73.3581 33.0487 72.3343 33.0487ZM59.9324 31.0644H63.9415V32.8583H58.057V23.3454H63.8735V25.1392H59.9324V27.1642H63.5338V28.9307H59.9324V31.0644ZM50.6018 23.3453H52.4637V32.8581H50.6018V28.9172H47.0685V32.8581H45.1931V23.3453H47.0685V27.1234H50.6018V23.3453ZM36.1208 33.0487C34.6893 33.0487 33.5068 32.5731 32.5735 31.6215C31.6404 30.6705 31.1738 29.4972 31.1738 28.1016C31.1738 26.6972 31.6404 25.5217 32.5735 24.5752C33.5068 23.6286 34.6893 23.1553 36.1208 23.1553C36.9813 23.1553 37.7764 23.3564 38.5058 23.7596C39.235 24.163 39.8037 24.7085 40.2113 25.3974L38.594 26.3351C38.3584 25.909 38.0233 25.5762 37.5884 25.3363C37.1536 25.0964 36.6643 24.9763 36.1208 24.9763C35.1965 24.9763 34.4514 25.2657 33.8851 25.8458C33.3189 26.4258 33.0357 27.1779 33.0357 28.1018C33.0357 29.0167 33.3189 29.7644 33.8851 30.3445C34.4515 30.9239 35.1966 31.2139 36.1208 31.2139C36.6643 31.2139 37.1559 31.0939 37.5951 30.8539C38.0346 30.614 38.3675 30.2856 38.594 29.8684L40.2113 30.8061C39.8037 31.495 39.2373 32.0406 38.5125 32.4439C37.7878 32.8471 36.9903 33.0487 36.1208 33.0487Z" fill="white"/>
</svg>
