<svg width="105" height="38" viewBox="0 0 105 38" fill="none" xmlns="http://www.w3.org/2000/svg">
<path fill-rule="evenodd" clip-rule="evenodd" d="M5.11196 34.1742C4.81875 33.4987 4.02513 32.7537 3.29001 32.6786C4.06657 29.3906 5.77812 26.1703 8.61874 24.341C6.27833 26.8169 4.864 30.7284 5.11196 34.1742ZM9.6223 3.16577C8.1484 2.33538 6.81742 1.26674 5.68478 0C5.33713 1.73522 5.79372 3.51631 6.89281 4.86173C6.07319 5.56485 5.35081 6.4032 4.76186 7.36452C4.76186 7.36452 4.07111 8.85455 2.68962 11.8339C2.68962 11.8339 2.75201 12.3084 2.87702 13.257C1.01287 17.0355 0.0808471 18.9246 0.0808471 18.9246C-0.17113 19.957 0.165898 21.2596 1.09195 22.832C2.59048 23.0158 3.95945 23.0158 5.19872 22.832C5.56848 21.4932 6.09674 19.4606 7.05851 19.21C10.342 18.9771 11.8026 17.5874 11.44 15.0404C16.0999 20.0859 2.19839 23.8039 1.99071 33.4559C3.25019 33.6407 4.20828 34.6821 4.28769 35.9528H3.51353C2.95051 35.9528 2.4899 36.4133 2.4899 36.9766C2.4899 37.5394 2.95051 38 3.51353 38H19.9158C20.4788 38 20.9394 37.5394 20.9394 36.9766C20.9394 36.4133 20.4788 35.9528 19.9158 35.9528H19.1421C19.4174 34.5272 20.5983 33.4532 22.0434 33.3141C21.6136 25.9026 23.0846 21.4642 24.2101 14.5805C25.0187 9.59442 22.1877 4.7327 17.4523 2.9759C14.8366 2.00539 12.0434 2.13204 9.6223 3.16577Z" fill="white"/>
<path d="M104.557 5.20295V7.97076H101.319V17.7836H98.4415V7.97076H95.2038V5.20295H104.557ZM88.9415 5.20295H91.8194V17.7836H88.9415V12.7874H84.9843V17.7836H82.1063V5.20295H84.9843V10.0196H88.9415V5.20295ZM78.3623 10.7746V11.8527C78.3623 13.7338 77.7778 15.2346 76.6086 16.3548C75.4394 17.4752 73.9554 18.0354 72.1568 18.0354C70.2021 18.0354 68.5803 17.4064 67.2913 16.1482C66.0022 14.8901 65.3577 13.3444 65.3577 11.5113C65.3577 9.67816 65.9962 8.12654 67.2733 6.85665C68.5504 5.58645 70.1123 4.95154 71.9589 4.95154C73.1342 4.95154 74.2103 5.21498 75.1876 5.74223C76.1649 6.26943 76.9234 6.96444 77.463 7.82714L75.0168 9.22906C74.741 8.79755 74.3303 8.44406 73.7847 8.16859C73.239 7.8928 72.6245 7.75507 71.941 7.75507C70.8737 7.75507 69.9894 8.10856 69.2878 8.81553C68.5864 9.52251 68.2356 10.4272 68.2356 11.5293C68.2356 12.6197 68.5954 13.5093 69.3149 14.1983C70.0344 14.8872 70.9937 15.2316 72.1928 15.2316C73.8596 15.2316 74.9328 14.5846 75.4125 13.2908H72.0489V10.7747L78.3623 10.7746ZM58.7356 5.20295H61.6135V17.7836H58.7356V5.20295ZM51.574 5.20295H54.4519V17.7836H52.2935L47.4369 10.9543V17.7836H44.559V5.20295H46.7174L51.574 12.0325V5.20295ZM41.3545 17.7836H38.0809L34.0517 11.9725V17.7836H31.1738V5.20295H34.0517V10.6666L37.901 5.20295H41.1746L36.9297 11.3315L41.3545 17.7836Z" fill="white"/>
<path d="M83.7985 33.0486C82.8563 33.0486 82.0634 32.838 81.4201 32.4163C80.7769 31.9953 80.324 31.422 80.0613 30.6976L81.6649 29.7599C82.0363 30.7293 82.7657 31.2136 83.8529 31.2136C84.3784 31.2136 84.7635 31.1187 85.008 30.9287C85.2526 30.7381 85.3749 30.4981 85.3749 30.2081C85.3749 29.8732 85.2254 29.6126 84.9264 29.4265C84.6275 29.2409 84.0929 29.0393 83.3227 28.8222C82.8969 28.695 82.5367 28.5683 82.2424 28.4416C81.9479 28.3144 81.6535 28.145 81.359 27.9317C81.0644 27.7189 80.8403 27.4495 80.6862 27.1234C80.5322 26.7974 80.4552 26.4168 80.4552 25.9818C80.4552 25.1208 80.7611 24.4346 81.3726 23.9224C81.9841 23.4108 82.7204 23.1553 83.581 23.1553C84.3512 23.1553 85.0283 23.343 85.6128 23.7191C86.1971 24.0947 86.6524 24.6179 86.9786 25.2885L85.4022 26.199C85.0216 25.3835 84.4145 24.9763 83.581 24.9763C83.1915 24.9763 82.8858 25.064 82.6637 25.2413C82.4416 25.418 82.3307 25.6463 82.3307 25.9273C82.3307 26.2262 82.4551 26.4684 82.7044 26.6546C82.9536 26.8401 83.4315 27.0417 84.1383 27.2589C84.4282 27.35 84.6479 27.42 84.7975 27.47C84.9469 27.5195 85.1507 27.5966 85.409 27.7005C85.6674 27.8049 85.8665 27.9021 86.0071 27.9926C86.1474 28.0838 86.3083 28.206 86.4895 28.3599C86.6708 28.5138 86.809 28.6726 86.9041 28.8355C86.9992 28.9988 87.0808 29.1954 87.1487 29.4265C87.2167 29.6576 87.2505 29.9093 87.2505 30.1809C87.2505 31.0598 86.9312 31.7575 86.2925 32.2741C85.6536 32.7903 84.8223 33.0486 83.7985 33.0486ZM72.3343 33.0486C71.3921 33.0486 70.5993 32.838 69.956 32.4163C69.3127 31.9953 68.8598 31.422 68.5971 30.6976L70.2007 29.7599C70.5721 30.7293 71.3016 31.2136 72.3887 31.2136C72.9142 31.2136 73.2992 31.1187 73.5438 30.9287C73.7884 30.7381 73.9107 30.4981 73.9107 30.2081C73.9107 29.8732 73.7612 29.6126 73.4622 29.4265C73.1632 29.2409 72.6287 29.0393 71.8585 28.8222C71.4327 28.695 71.0726 28.5683 70.7781 28.4416C70.4837 28.3144 70.1892 28.145 69.8947 27.9317C69.6001 27.7189 69.376 27.4495 69.2219 27.1234C69.0679 26.7974 68.991 26.4168 68.991 25.9818C68.991 25.1208 69.2968 24.4346 69.9083 23.9224C70.5199 23.4108 71.2561 23.1553 72.1167 23.1553C72.8868 23.1553 73.564 23.343 74.1484 23.7191C74.7328 24.0947 75.188 24.6179 75.5143 25.2885L73.9378 26.199C73.5573 25.3835 72.9502 24.9763 72.1167 24.9763C71.7271 24.9763 71.4214 25.064 71.1994 25.2413C70.9773 25.418 70.8664 25.6463 70.8664 25.9273C70.8664 26.2262 70.991 26.4684 71.2402 26.6546C71.4892 26.8401 71.9672 27.0417 72.6739 27.2589C72.9638 27.35 73.1835 27.42 73.3331 27.47C73.4825 27.5195 73.6864 27.5966 73.9447 27.7005C74.203 27.8049 74.4021 27.9021 74.5427 27.9926C74.6831 28.0838 74.8439 28.206 75.0251 28.3599C75.2062 28.5138 75.3446 28.6726 75.4396 28.8355C75.5347 28.9988 75.6163 29.1954 75.6842 29.4265C75.7521 29.6576 75.7861 29.9093 75.7861 30.1809C75.7861 31.0598 75.4667 31.7575 74.8279 32.2741C74.1895 32.7903 73.3581 33.0486 72.3343 33.0486ZM59.9324 31.0643H63.9415V32.8581H58.057V23.3453H63.8735V25.1391H59.9324V27.164H63.5338V28.9306H59.9324V31.0643ZM50.6018 23.3452H52.4637V32.858H50.6018V28.917H47.0685V32.858H45.1931V23.3452H47.0685V27.1233H50.6018V23.3452ZM36.1208 33.0486C34.6893 33.0486 33.5068 32.573 32.5735 31.6214C31.6404 30.6704 31.1738 29.4971 31.1738 28.1015C31.1738 26.6971 31.6404 25.5216 32.5735 24.575C33.5068 23.6284 34.6893 23.1552 36.1208 23.1552C36.9813 23.1552 37.7764 23.3563 38.5058 23.7595C39.235 24.1628 39.8037 24.7084 40.2113 25.3973L38.594 26.335C38.3584 25.9089 38.0233 25.5761 37.5884 25.3362C37.1536 25.0962 36.6643 24.9762 36.1208 24.9762C35.1965 24.9762 34.4514 25.2656 33.8851 25.8456C33.3189 26.4256 33.0357 27.1778 33.0357 28.1016C33.0357 29.0166 33.3189 29.7643 33.8851 30.3443C34.4515 30.9238 35.1966 31.2138 36.1208 31.2138C36.6643 31.2138 37.1559 31.0938 37.5951 30.8538C38.0346 30.6139 38.3675 30.2855 38.594 29.8683L40.2113 30.806C39.8037 31.4949 39.2373 32.0404 38.5125 32.4438C37.7878 32.847 36.9903 33.0486 36.1208 33.0486Z" fill="white"/>
</svg>
