<svg width="150" height="60" viewBox="0 0 150 60" fill="none" xmlns="http://www.w3.org/2000/svg">
<path d="M131.057 30.3205C130.301 29.8219 129.458 29.4608 128.667 29.0137C128.151 28.7214 127.601 28.4721 127.163 28.1024C126.406 27.4748 126.561 26.254 127.352 25.721C128.495 24.9644 130.378 25.3857 130.576 26.9332C130.576 26.9676 130.61 26.9848 130.645 26.9848H132.364C132.407 26.9848 132.441 26.9504 132.433 26.9074C132.347 25.8414 131.926 24.9472 131.169 24.3798C130.438 23.8382 129.613 23.5459 128.736 23.5459C124.188 23.5459 123.775 28.3432 126.226 29.8649C126.501 30.0454 128.908 31.249 129.759 31.7734C130.61 32.2979 130.877 33.2522 130.507 34.0087C130.172 34.6965 129.303 35.1779 128.427 35.1264C127.481 35.0748 126.741 34.5589 126.484 33.7594C126.441 33.6133 126.415 33.3381 126.415 33.2178C126.415 33.1834 126.38 33.149 126.346 33.149H124.48C124.48 33.149 124.412 33.1834 124.412 33.2178C124.412 34.5675 124.747 35.3155 125.667 35.9947C126.527 36.6395 127.464 36.906 128.435 36.906C130.98 36.906 132.295 35.4703 132.57 33.9743C132.803 32.5128 132.373 31.1974 131.066 30.3291L131.057 30.3205Z" fill="#161616"/>
<path d="M50.071 23.7949H48.343C48.343 23.7949 48.2828 23.8207 48.2742 23.8379L46.7439 28.8759C46.7181 28.9447 46.6321 28.9447 46.6063 28.8759L45.076 23.8379C45.076 23.8379 45.0416 23.7949 45.0072 23.7949H42.1615C42.1615 23.7949 42.0928 23.8293 42.0928 23.8637V36.7166C42.0928 36.7166 42.1272 36.7853 42.1615 36.7853H44.0271C44.0271 36.7853 44.0959 36.7509 44.0959 36.7166V26.9501C44.0959 26.8727 44.2077 26.8641 44.2335 26.9243L45.7724 31.9967L45.8841 32.3492C45.8841 32.3492 45.9185 32.3921 45.9529 32.3921H47.3801C47.3801 32.3921 47.4316 32.3664 47.4488 32.3492L47.5606 31.9967L49.0995 26.9243C49.1253 26.8469 49.2371 26.8727 49.2371 26.9501V36.7166C49.2371 36.7166 49.2715 36.7853 49.3058 36.7853H51.1714C51.1714 36.7853 51.2402 36.7509 51.2402 36.7166V23.8637C51.2402 23.8637 51.2058 23.7949 51.1714 23.7949H50.0796H50.071Z" fill="#161616"/>
<path d="M102.497 23.7949C102.497 23.7949 102.437 23.8207 102.428 23.8379L100.898 28.8759C100.872 28.9447 100.786 28.9447 100.76 28.8759L99.23 23.8379C99.23 23.8379 99.1956 23.7949 99.1612 23.7949H96.3242C96.3242 23.7949 96.2554 23.8293 96.2554 23.8637V36.7166C96.2554 36.7166 96.2898 36.7853 96.3242 36.7853H98.1897C98.1897 36.7853 98.2585 36.7509 98.2585 36.7166V26.9501C98.2585 26.8727 98.3703 26.8641 98.3961 26.9243L99.935 31.9967L100.047 32.3492C100.047 32.3492 100.081 32.3921 100.116 32.3921H101.543C101.543 32.3921 101.603 32.3664 101.611 32.3492L101.723 31.9967L103.262 26.9243C103.288 26.8469 103.4 26.8727 103.4 26.9501V36.7166C103.4 36.7166 103.434 36.7853 103.468 36.7853H105.334C105.334 36.7853 105.403 36.7509 105.403 36.7166V23.8637C105.403 23.8637 105.368 23.7949 105.334 23.7949H102.497Z" fill="#161616"/>
<path d="M78.442 23.7949H69.6298C69.6298 23.7949 69.561 23.8293 69.561 23.8637V25.4714C69.561 25.4714 69.5954 25.5402 69.6298 25.5402H73.0343V36.7251C73.0343 36.7251 73.0687 36.7939 73.1031 36.7939H74.9687C74.9687 36.7939 75.0375 36.7595 75.0375 36.7251V25.5402H78.442C78.442 25.5402 78.5107 25.5058 78.5107 25.4714V23.8637C78.5107 23.8637 78.485 23.7949 78.442 23.7949Z" fill="#161616"/>
<path d="M89.4464 36.7863H91.14C91.183 36.7863 91.2174 36.7433 91.2088 36.7004L87.7011 23.7959C87.7011 23.7959 87.6668 23.7529 87.6324 23.7529H85.1994C85.1994 23.7529 85.1392 23.7787 85.1306 23.7959L81.6229 36.7004C81.6143 36.7433 81.6487 36.7863 81.6917 36.7863H83.3853C83.3853 36.7863 83.4369 36.7605 83.4541 36.7433L84.4686 32.9864C84.4686 32.9864 84.503 32.9434 84.5374 32.9434H88.2944C88.2944 32.9434 88.3545 32.9692 88.3631 32.9864L89.3776 36.7433C89.3776 36.7433 89.4206 36.7863 89.4464 36.7863ZM84.993 31.1036L86.3514 26.0828C86.3772 26.014 86.4631 26.014 86.4889 26.0828L87.8473 31.1036C87.8559 31.1465 87.8215 31.1895 87.7785 31.1895H85.0532C85.0102 31.1895 84.9758 31.1465 84.9844 31.1036H84.993Z" fill="#161616"/>
<path d="M118.393 36.7863H120.087C120.13 36.7863 120.164 36.7433 120.156 36.7004L116.648 23.7959C116.648 23.7959 116.614 23.7529 116.579 23.7529H114.146C114.146 23.7529 114.086 23.7787 114.077 23.7959L110.57 36.7004C110.561 36.7433 110.595 36.7863 110.638 36.7863H112.332C112.332 36.7863 112.392 36.7605 112.401 36.7433L113.415 32.9864C113.415 32.9864 113.45 32.9434 113.484 32.9434H117.241C117.241 32.9434 117.301 32.9692 117.31 32.9864L118.324 36.7433C118.324 36.7433 118.359 36.7863 118.393 36.7863ZM113.94 31.1036L115.307 26.0828C115.333 26.014 115.419 26.014 115.444 26.0828L116.811 31.1036C116.82 31.1465 116.785 31.1895 116.742 31.1895H114.017C113.974 31.1895 113.94 31.1465 113.948 31.1036H113.94Z" fill="#161616"/>
<path d="M58.8059 34.877V30.8879C58.8059 30.8879 58.8403 30.8192 58.8747 30.8192H63.8439C63.8439 30.8192 63.9126 30.7848 63.9126 30.7504V29.1427C63.9126 29.1427 63.8782 29.0739 63.8439 29.0739H58.8747C58.8747 29.0739 58.8059 29.0395 58.8059 29.0051V25.6006C58.8059 25.6006 58.8403 25.5319 58.8747 25.5319H64.523C64.523 25.5319 64.5918 25.4975 64.5918 25.4631V23.8554C64.5918 23.8554 64.5574 23.7866 64.523 23.7866H56.8715C56.8715 23.7866 56.8027 23.821 56.8027 23.8554V36.6997C56.8027 36.6997 56.8371 36.7684 56.8715 36.7684H64.7552C64.7552 36.7684 64.8239 36.734 64.8239 36.6997V35.006C64.8239 35.006 64.7896 34.9372 64.7552 34.9372H58.8575C58.8575 34.9372 58.8059 34.9028 58.8059 34.8598V34.877Z" fill="#161616"/>
<path d="M148.105 36.6738L141.649 30.0195C141.649 30.0195 141.623 29.9507 141.649 29.9335L147.461 23.9155C147.504 23.8725 147.469 23.8037 147.418 23.8037H145.036C145.036 23.8037 145.002 23.8123 144.993 23.8295L140.067 28.9277C140.024 28.9706 139.955 28.9363 139.955 28.8847V23.8725C139.955 23.8725 139.921 23.8037 139.887 23.8037H138.021C138.021 23.8037 137.952 23.8381 137.952 23.8725V36.7253C137.952 36.7253 137.987 36.7941 138.021 36.7941H139.887C139.887 36.7941 139.955 36.7597 139.955 36.7253V31.0684C139.955 31.0168 140.033 30.9824 140.067 31.0254L145.647 36.7769C145.647 36.7769 145.681 36.8027 145.69 36.8027H148.071C148.114 36.7941 148.148 36.7167 148.105 36.6824V36.6738Z" fill="#161616"/>
<path d="M29.3516 16.8745L18.0635 25.231L20.1612 20.3048L29.3516 16.8745Z" fill="#E17726" stroke="#E17726" stroke-width="0.46875" stroke-linecap="round" stroke-linejoin="round"/>
<path d="M3.31104 16.8745L14.5046 25.3084L12.5015 20.3048L3.31104 16.8745Z" fill="#E27625" stroke="#E27625" stroke-width="0.46875" stroke-linecap="round" stroke-linejoin="round"/>
<path d="M25.2851 36.2529L22.2847 40.8438L28.7154 42.6149L30.5552 36.3561L25.2851 36.2529Z" fill="#E27625" stroke="#E27625" stroke-width="0.46875" stroke-linecap="round" stroke-linejoin="round"/>
<path d="M2.11572 36.3561L3.94693 42.6149L10.3691 40.8438L7.37722 36.2529L2.11572 36.3561Z" fill="#E27625" stroke="#E27625" stroke-width="0.46875" stroke-linecap="round" stroke-linejoin="round"/>
<path d="M10.025 28.4978L8.23682 31.1974L14.5988 31.4897L14.3838 24.6377L10.0164 28.5064L10.025 28.4978Z" fill="#E27625" stroke="#E27625" stroke-width="0.46875" stroke-linecap="round" stroke-linejoin="round"/>
<path d="M22.6458 28.4979L18.2096 24.5518L18.0635 31.4811L24.4254 31.1888L22.6372 28.4893L22.6458 28.4979Z" fill="#E27625" stroke="#E27625" stroke-width="0.46875" stroke-linecap="round" stroke-linejoin="round"/>
<path d="M10.3691 40.8437L14.2207 38.9867L10.9022 36.3989L10.3691 40.8437Z" fill="#E27625" stroke="#E27625" stroke-width="0.46875" stroke-linecap="round" stroke-linejoin="round"/>
<path d="M18.4419 38.9779L22.2849 40.8349L21.7604 36.3901L18.4419 38.9779Z" fill="#E27625" stroke="#E27625" stroke-width="0.46875" stroke-linecap="round" stroke-linejoin="round"/>
<path d="M22.2849 40.8438L18.4419 38.9868L18.7514 41.48L18.717 42.5375L22.2763 40.8438H22.2849Z" fill="#D5BFB2" stroke="#D5BFB2" stroke-width="0.46875" stroke-linecap="round" stroke-linejoin="round"/>
<path d="M10.3691 40.8438L13.9456 42.5375L13.9198 41.48L14.2207 38.9868L10.3691 40.8438Z" fill="#D5BFB2" stroke="#D5BFB2" stroke-width="0.46875" stroke-linecap="round" stroke-linejoin="round"/>
<path d="M14.0058 34.7484L10.8076 33.8113L13.0601 32.771L13.9972 34.7398L14.0058 34.7484Z" fill="#233447" stroke="#233447" stroke-width="0.46875" stroke-linecap="round" stroke-linejoin="round"/>
<path d="M18.6567 34.7481L19.5938 32.7793L21.8635 33.8196L18.6567 34.7567V34.7481Z" fill="#233447" stroke="#233447" stroke-width="0.46875" stroke-linecap="round" stroke-linejoin="round"/>
<path d="M10.3688 40.8438L10.9276 36.2529L7.37695 36.3561L10.3688 40.8438Z" fill="#CC6228" stroke="#CC6228" stroke-width="0.46875" stroke-linecap="round" stroke-linejoin="round"/>
<path d="M21.7349 36.2529L22.2851 40.8438L25.2855 36.3561L21.7349 36.2529Z" fill="#CC6228" stroke="#CC6228" stroke-width="0.46875" stroke-linecap="round" stroke-linejoin="round"/>
<path d="M24.4254 31.1978L18.0635 31.4901L18.6567 34.757L19.5938 32.7882L21.8635 33.8285L24.434 31.2064L24.4254 31.1978Z" fill="#CC6228" stroke="#CC6228" stroke-width="0.46875" stroke-linecap="round" stroke-linejoin="round"/>
<path d="M10.816 33.8109L13.0685 32.7707L14.0056 34.7394L14.5988 31.4725L8.23682 31.1802L10.816 33.8023V33.8109Z" fill="#CC6228" stroke="#CC6228" stroke-width="0.46875" stroke-linecap="round" stroke-linejoin="round"/>
<path d="M8.23682 31.1976L10.902 36.3989L10.816 33.8111L8.23682 31.189V31.1976Z" fill="#E27525" stroke="#E27525" stroke-width="0.46875" stroke-linecap="round" stroke-linejoin="round"/>
<path d="M21.8634 33.8113L21.7603 36.3991L24.4254 31.1978L21.8548 33.8199L21.8634 33.8113Z" fill="#E27525" stroke="#E27525" stroke-width="0.46875" stroke-linecap="round" stroke-linejoin="round"/>
<path d="M14.5991 31.4814L14.0059 34.7484L14.7538 38.5999L14.9172 33.519L14.5905 31.4814H14.5991Z" fill="#E27525" stroke="#E27525" stroke-width="0.46875" stroke-linecap="round" stroke-linejoin="round"/>
<path d="M18.0634 31.4814L17.7539 33.5104L17.9087 38.5999L18.6566 34.7484L18.0634 31.4814Z" fill="#E27525" stroke="#E27525" stroke-width="0.46875" stroke-linecap="round" stroke-linejoin="round"/>
<path d="M18.6571 34.7479L17.9092 38.5995L18.4422 38.9778L21.7607 36.39L21.8639 33.8022L18.6571 34.7393V34.7479Z" fill="#F5841F" stroke="#F5841F" stroke-width="0.46875" stroke-linecap="round" stroke-linejoin="round"/>
<path d="M10.8162 33.811L10.9022 36.3988L14.2207 38.9866L14.7537 38.6083L14.0058 34.7567L10.8076 33.8196L10.8162 33.811Z" fill="#F5841F" stroke="#F5841F" stroke-width="0.46875" stroke-linecap="round" stroke-linejoin="round"/>
<path d="M18.7253 42.5374L18.7597 41.4799L18.4674 41.2306H14.2032L13.9281 41.4799L13.9539 42.5374L10.3774 40.8438L11.6326 41.8668L14.1688 43.6121H18.5104L21.0552 41.8668L22.2932 40.8438L18.7339 42.5374H18.7253Z" fill="#C0AC9D" stroke="#C0AC9D" stroke-width="0.46875" stroke-linecap="round" stroke-linejoin="round"/>
<path d="M18.4418 38.9779L17.9087 38.5996H14.7622L14.2291 38.9779L13.9282 41.4711L14.2033 41.2218H18.4676L18.7599 41.4711L18.4504 38.9779H18.4418Z" fill="#161616" stroke="#161616" stroke-width="0.46875" stroke-linecap="round" stroke-linejoin="round"/>
<path d="M29.8332 25.7809L30.7789 21.1728L29.3518 16.8828L18.4419 24.9556L22.6373 28.4977L28.5694 30.2257L29.8762 28.6954L29.3088 28.2827L30.2115 27.4574L29.5151 26.9244L30.4178 26.2366L29.8246 25.7809H29.8332Z" fill="#763E1A" stroke="#763E1A" stroke-width="0.46875" stroke-linecap="round" stroke-linejoin="round"/>
<path d="M1.875 21.1645L2.83789 25.7726L2.22749 26.2283L3.14739 26.9161L2.45101 27.4491L3.35372 28.2744L2.78631 28.6871L4.09308 30.2174L10.0252 28.4894L14.2206 24.9473L3.31074 16.8745L1.875 21.1645Z" fill="#763E1A" stroke="#763E1A" stroke-width="0.46875" stroke-linecap="round" stroke-linejoin="round"/>
<path d="M28.5693 30.2261L22.6372 28.498L24.4254 31.1976L21.7603 36.3989L25.2937 36.3559H30.5638L28.5779 30.2261H28.5693Z" fill="#F5841F" stroke="#F5841F" stroke-width="0.46875" stroke-linecap="round" stroke-linejoin="round"/>
<path d="M10.0252 28.498L4.09308 30.2261L2.11572 36.3559H7.37722L10.9107 36.3989L8.24554 31.1976L10.0338 28.498H10.0252Z" fill="#F5841F" stroke="#F5841F" stroke-width="0.46875" stroke-linecap="round" stroke-linejoin="round"/>
<path d="M18.0639 31.4813L18.4421 24.956L20.1616 20.3135H12.5015L14.2209 24.956L14.5992 31.4813L14.7453 33.5274V38.5998H17.9091V33.5274L18.0639 31.4813Z" fill="#F5841F" stroke="#F5841F" stroke-width="0.46875" stroke-linecap="round" stroke-linejoin="round"/>
</svg>
