<svg width="150" height="60" viewBox="0 0 150 60" fill="none" xmlns="http://www.w3.org/2000/svg">
<path d="M56.4116 21.8067H55.6574C54.9215 21.8067 54.5985 22.022 54.1134 22.8301L50.0919 29.3469L48.4225 22.9022C48.2249 22.1302 48.0095 21.825 47.1659 21.825H46.5377C45.7118 21.825 45.1912 22.3095 45.0297 23.1714L43.1627 33.6553C43.019 34.4451 43.3781 34.858 44.0602 34.858H44.3476C45.0658 34.858 45.3888 34.499 45.5143 33.7269L47.0222 25.2538L48.4763 30.9264C48.6017 31.5008 48.7094 31.8777 49.8049 31.8777C50.7207 31.8777 50.936 31.5547 51.259 31.0341L54.8133 25.1994L53.3053 33.6726C53.1616 34.4807 53.5207 34.8753 54.185 34.8753H54.4903C55.2084 34.8753 55.5314 34.4984 55.6569 33.7442L57.5061 23.1886C57.6676 22.345 57.2547 21.8062 56.4111 21.8062L56.4116 21.8067Z" fill="black"/>
<path d="M67.6315 29.3102C67.5416 26.7611 65.8183 24.894 62.9101 24.894C59.589 24.894 57.5604 27.6047 57.6503 30.5667C57.758 33.2773 59.625 35.0189 62.3717 35.0189C65.7827 35.0011 67.7214 32.2722 67.6315 29.3102ZM62.3895 33.1519C60.8277 33.1519 59.8404 32.0208 59.7865 30.4768C59.7149 28.4843 61.0253 26.725 62.8923 26.725C64.3286 26.725 65.4592 27.8561 65.5136 29.4179C65.5674 31.518 64.257 33.1519 62.39 33.1519H62.3895Z" fill="black"/>
<path d="M75.0456 24.8936C73.6631 24.8936 72.5681 25.5757 71.8322 26.7245C71.9038 25.4142 71.1861 25.0368 70.4497 25.0368C70.1084 25.0368 69.8392 25.1267 69.8214 25.1622L68.3135 33.6893C68.1697 34.5689 68.6548 34.8204 69.3008 34.8204H69.57C70.2704 34.8204 70.5573 34.5329 70.7011 33.6893L71.5985 28.5727C72.2451 27.4417 72.9627 26.9033 74.076 26.9033C75.1894 26.9033 75.8532 27.5676 75.8714 28.6626C75.8892 28.9501 75.8176 29.3087 75.7638 29.7399L75.0639 33.6893C74.9202 34.5689 75.423 34.8204 76.0512 34.8204H76.3204C77.0203 34.8204 77.3078 34.5329 77.4515 33.6893L78.2235 29.327C78.3134 28.8424 78.3673 28.4112 78.349 28.0166C78.2951 26.1857 77.0741 24.8931 75.0456 24.8931V24.8936Z" fill="black"/>
<path d="M117.521 24.8936C116.39 24.8936 115.546 25.5397 114.972 26.7246C115.061 25.4142 114.343 25.0368 113.607 25.0368C113.248 25.0368 112.997 25.1267 112.979 25.1623L111.453 33.6893C111.31 34.569 111.884 34.8204 112.531 34.8204H112.8C113.41 34.8204 113.697 34.5329 113.859 33.6893L114.362 30.8349C114.739 28.6088 115.565 27.0648 116.893 27.0648C117.54 27.0648 117.953 27.334 118.222 27.6393C118.258 27.6753 119.263 27.2802 119.227 26.0953C119.173 25.3593 118.437 24.8926 117.522 24.8926L117.521 24.8936Z" fill="black"/>
<path d="M129.117 25.0375C128.184 25.0375 127.663 25.4865 127.358 26.6709C126.766 25.5581 125.545 24.8755 124.127 24.8755C121.111 24.8755 119.011 27.5683 119.011 30.6203C119.011 33.1333 120.555 35.0004 122.996 35.0004C124.486 35.0004 125.635 34.3899 126.371 33.1511C126.263 34.4437 126.515 34.8388 127.448 34.8388C128.274 34.8388 128.543 34.5336 128.633 33.6179C128.741 31.9301 129.315 29.184 129.98 25.3239C129.98 25.2523 129.603 25.0365 129.118 25.0365L129.117 25.0375ZM123.516 33.1516C122.044 33.1516 121.2 32.2181 121.2 30.5664C121.2 28.6278 122.331 26.6887 124.431 26.6887C126.137 26.6887 126.855 27.9452 126.855 29.3277C126.855 31.0693 125.67 33.1516 123.516 33.1516Z" fill="black"/>
<path d="M143.443 24.8931C141.792 24.8931 140.697 25.7367 139.925 26.9754C139.548 25.6651 138.417 24.8931 136.98 24.8931C135.724 24.8931 134.629 25.4853 133.875 26.6163C133.911 25.4137 133.21 25.0546 132.492 25.0546C132.133 25.0546 131.882 25.1445 131.864 25.18L130.356 33.707C130.212 34.5867 130.697 34.8381 131.343 34.8381H131.612C132.223 34.8381 132.6 34.5867 132.744 33.707L133.677 28.4112C134.359 27.3523 135.006 26.9033 136.011 26.9033C137.016 26.9033 137.609 27.6392 137.609 28.7525C137.609 28.9318 137.591 29.1294 137.555 29.3447L136.801 33.707C136.657 34.5867 137.16 34.8381 137.788 34.8381H138.04C138.65 34.8381 139.045 34.5689 139.189 33.707L140.122 28.4112C140.804 27.3523 141.451 26.9033 142.456 26.9033C143.407 26.9033 144.108 27.4777 144.108 28.6626C144.108 28.9501 144.054 29.3087 143.982 29.7399L143.282 33.6893C143.138 34.5689 143.623 34.8204 144.269 34.8204H144.538C145.238 34.8204 145.526 34.5329 145.669 33.6893L146.441 29.327C146.531 28.8424 146.567 28.4112 146.567 28.0166C146.585 26.0958 145.292 24.8931 143.443 24.8931Z" fill="black"/>
<path d="M89.246 29.1664C89.246 27.8377 88.9768 26.958 88.3846 26.1866C87.7381 25.3607 86.5354 24.8579 85.1351 24.8579C80.8983 24.8579 79.3726 27.9815 79.3726 30.6921C79.3726 33.4027 81.2396 35.0005 84.1117 35.0005C86.9838 35.0005 88.5995 33.7257 88.5995 32.7028C88.5995 32.0207 88.1149 31.7871 87.5583 31.7333C86.804 32.7028 85.7629 33.1696 84.3448 33.1696C83.0883 33.1696 81.5981 32.6851 81.4905 30.4407H88.0073C88.7071 30.4584 89.246 30.0638 89.246 29.1659V29.1664ZM87.1459 28.8611H81.7063C82.2269 27.4786 83.4296 26.6173 84.9558 26.6173C85.7278 26.6173 86.32 26.8326 86.7152 27.2633C87.0565 27.6584 87.1819 28.1968 87.1459 28.8611Z" fill="black"/>
<path d="M109.478 27.8563H105.6C105.134 27.8563 104.918 27.964 104.775 28.1077C104.541 28.3591 104.415 28.9336 104.415 29.185C104.433 29.5801 104.775 29.8132 105.403 29.8132H108.15C107.773 31.7341 106.552 33.0627 104.452 33.0627C102.244 33.0627 100.771 31.6625 100.682 29.2749C100.574 26.2768 102.567 23.7993 105.386 23.7993C107.037 23.7993 108.33 24.6789 108.85 25.8456C108.923 25.9355 110.448 25.9355 110.394 24.6246C110.377 24.1578 110.107 23.6012 109.605 23.1344C108.797 22.3263 107.271 21.6265 105.242 21.6265C102.406 21.6265 100.162 23.1882 98.9953 25.4504C98.9953 25.4326 98.9775 25.4326 98.9775 25.4326C98.7444 25.1274 98.367 24.9836 97.9902 24.9836C97.3619 24.9836 96.949 25.1812 96.3385 26.2585L93.3226 31.5543L92.1915 26.2762C91.9762 25.2889 91.6171 24.9836 90.9889 24.9836C90.2529 24.9836 89.6602 25.522 89.6785 25.648L91.8325 34.175L89.6064 37.8374C89.3732 38.2326 89.355 38.7532 90.1986 38.7532H90.6653C91.545 38.7532 91.8319 38.2148 92.2632 37.4783L98.331 27.2097C98.1517 27.9279 98.0618 28.6999 98.0978 29.4897C98.2055 32.9362 100.539 35.0186 103.95 35.0186C105.566 35.0186 106.859 34.4081 107.577 33.4746C107.523 34.4797 108.061 34.8749 108.779 34.8749C109.175 34.8749 109.461 34.7494 109.461 34.6773L110.449 29.1484C110.61 28.2865 110.287 27.8558 109.479 27.8558L109.478 27.8563Z" fill="black"/>
<path d="M33.9486 39.5735C39.508 34.0141 39.508 25.0005 33.9486 19.4411C28.3892 13.8817 19.3756 13.8817 13.8162 19.4411C8.25679 25.0005 8.25679 34.0141 13.8162 39.5735C19.3756 45.1329 28.3892 45.1329 33.9486 39.5735Z" fill="white"/>
<path d="M38.119 29.5072C38.119 37.3705 31.7459 43.743 23.8832 43.743C16.0206 43.743 9.64697 37.3705 9.64697 29.5072C9.64697 27.335 10.1315 25.2887 10.9934 23.4572C10.419 24.9113 10.1498 26.3654 10.1498 27.7118C10.1498 34.1565 15.3557 35.09 17.564 35.0722C20.939 35.0362 24.8706 33.3845 28.1917 30.3331C28.1917 30.3331 27.761 32.7385 27.6351 33.4749C27.5096 34.1931 27.9758 34.8213 28.694 34.8213H28.9815C29.7174 34.8213 30.2558 34.2108 30.3817 33.4749L31.5844 26.7611C31.7282 26.0074 31.2431 25.4146 30.4894 25.4146H23.7756C23.0213 25.4146 22.3392 25.8098 22.2138 26.5635C22.2138 26.5996 22.16 26.8149 22.16 26.8687C22.0523 27.5869 22.5551 28.1253 23.2728 28.1253H26.7737C26.7198 28.1791 26.666 28.2329 26.6122 28.2868C24.1885 30.5667 21.1904 31.8232 18.7134 31.8232C16.2364 31.8232 13.4892 30.2615 13.4892 26.7605C13.4887 19.49 20.3102 15.2715 23.8827 15.2715C31.7276 15.2715 38.1185 21.6445 38.1185 29.5072H38.119Z" fill="#DF2127"/>
</svg>
