<svg width="150" height="60" viewBox="0 0 150 60" fill="none" xmlns="http://www.w3.org/2000/svg">
<path d="M57.9797 22.1285H50.5093C49.9982 22.1285 49.5634 22.4873 49.4834 22.9757L46.4621 41.4987C46.4092 41.8273 46.6415 42.1349 46.9812 42.1867C47.0131 42.1914 47.0455 42.194 47.0785 42.194H50.6449C51.1564 42.194 51.5913 41.8341 51.6707 41.3457L52.4859 36.3496C52.5647 35.8617 52.9996 35.5018 53.5106 35.5013H55.8756C60.7968 35.5013 63.6367 33.1988 64.3783 28.6357C64.7127 26.6393 64.3924 25.0708 63.426 23.9723C62.3639 22.7662 60.4808 22.1279 57.9808 22.1279L57.9797 22.1285ZM58.8413 28.8937C58.4329 31.4856 56.3845 31.4856 54.4041 31.4856H53.2767L54.0676 26.6451C54.1156 26.3526 54.376 26.1369 54.6823 26.1369H55.1987C56.5476 26.1369 57.8203 26.1369 58.4777 26.8807C58.8699 27.3241 58.9899 27.9833 58.8402 28.8937H58.8413ZM80.3104 28.8102H76.7332C76.4269 28.8102 76.166 29.0259 76.1185 29.3184L75.9602 30.2858L75.7101 29.9353C74.9354 28.8483 73.2084 28.4853 71.4847 28.4853C67.5315 28.4853 64.1547 31.3806 63.4973 35.4417C63.1553 37.4674 63.6415 39.4047 64.8299 40.7555C65.9201 41.9976 67.4802 42.5152 69.3357 42.5152C72.5213 42.5152 74.2872 40.535 74.2872 40.535L74.1278 41.4961C74.0733 41.8247 74.305 42.1334 74.6443 42.1856C74.6767 42.1908 74.7091 42.1929 74.7415 42.1929H77.9638C78.4754 42.1929 78.9102 41.833 78.9896 41.3446L80.923 29.5054C80.9776 29.1784 80.7469 28.8702 80.4087 28.818C80.3763 28.8128 80.3434 28.8102 80.3104 28.8102ZM75.3239 35.5425C74.9787 37.5185 73.3564 38.8453 71.2875 38.8453C70.2487 38.8453 69.4184 38.523 68.8852 37.9124C68.3564 37.306 68.1554 36.4431 68.3239 35.482C68.6464 33.5227 70.2957 32.1526 72.3328 32.1526C73.3489 32.1526 74.1743 32.4791 74.7183 33.0949C75.2633 33.717 75.4794 34.5851 75.3233 35.542L75.3239 35.5425ZM99.3632 28.8102H95.7682C95.4241 28.8107 95.1021 28.9757 94.9088 29.2505L89.9508 36.3125L87.8489 29.5263C87.7165 29.1011 87.3119 28.8102 86.8528 28.8102H83.3199C82.9758 28.8091 82.6965 29.0781 82.6954 29.4109C82.6954 29.4777 82.7067 29.5435 82.7289 29.6067L86.6886 40.8427L82.966 45.924C82.7667 46.1951 82.8326 46.5711 83.113 46.7634C83.2183 46.836 83.3447 46.8746 83.4738 46.8746H87.0645C87.4049 46.8746 87.7236 46.7143 87.9175 46.4437L99.8743 29.7551C100.07 29.4819 100 29.1069 99.7176 28.9172C99.6133 28.8473 99.4896 28.8096 99.3627 28.8096L99.3632 28.8102Z" fill="#253B80"/>
<path d="M111.266 22.1285H103.794C103.284 22.1285 102.849 22.4879 102.769 22.9757L99.7479 41.4988C99.6944 41.8268 99.9256 42.1345 100.264 42.1862C100.297 42.1909 100.329 42.1935 100.362 42.1935H104.196C104.554 42.1935 104.857 41.9412 104.913 41.6001L105.77 36.3496C105.849 35.8617 106.284 35.5018 106.795 35.5013H109.159C114.081 35.5013 116.92 33.1989 117.663 28.6357C117.998 26.6394 117.675 25.0708 116.709 23.9723C115.649 22.7663 113.766 22.128 111.266 22.128L111.266 22.1285ZM112.127 28.8938C111.72 31.4856 109.671 31.4856 107.69 31.4856H106.564L107.356 26.6451C107.403 26.3526 107.663 26.1369 107.969 26.1369H108.486C109.833 26.1369 111.107 26.1369 111.765 26.8807C112.157 27.3242 112.276 27.9833 112.126 28.8938H112.127ZM133.595 28.8102H130.02C129.714 28.8092 129.453 29.0254 129.406 29.3184L129.248 30.2858L128.997 29.9353C128.222 28.8483 126.496 28.4853 124.773 28.4853C120.819 28.4853 117.444 31.3806 116.786 35.4418C116.445 37.4674 116.929 39.4047 118.118 40.7555C119.21 41.9976 120.768 42.5152 122.624 42.5152C125.809 42.5152 127.575 40.5351 127.575 40.5351L127.416 41.4962C127.361 41.8247 127.593 42.1334 127.932 42.1856C127.965 42.1909 127.999 42.1935 128.032 42.193H131.253C131.764 42.193 132.198 41.8331 132.278 41.3447L134.212 29.5054C134.264 29.1764 134.031 28.8682 133.691 28.8175C133.659 28.8128 133.627 28.8102 133.595 28.8107V28.8102ZM128.609 35.5426C128.266 37.5186 126.641 38.8453 124.572 38.8453C123.536 38.8453 122.703 38.523 122.17 37.9124C121.641 37.306 121.442 36.4431 121.609 35.482C121.933 33.5227 123.58 32.1526 125.618 32.1526C126.634 32.1526 127.459 32.4791 128.003 33.0949C128.55 33.717 128.766 34.5851 128.608 35.5421L128.609 35.5426ZM137.812 22.6367L134.746 41.4988C134.693 41.8268 134.924 42.1345 135.263 42.1862C135.295 42.1909 135.328 42.1935 135.36 42.1935H138.442C138.954 42.1935 139.389 41.8341 139.468 41.3452L142.492 22.8232C142.545 22.4946 142.313 22.1865 141.974 22.1348C141.942 22.1301 141.91 22.1274 141.877 22.1274H138.426C138.119 22.1285 137.859 22.3442 137.812 22.6367H137.812Z" fill="#179BD7"/>
<path d="M15.438 45.793L16.0096 42.284L14.7369 42.2553H8.66016L12.8829 16.3647C12.9088 16.2012 13.0547 16.0805 13.2259 16.0815H23.4724C26.874 16.0815 29.2212 16.7658 30.4469 18.1171C31.0217 18.7507 31.3874 19.413 31.5646 20.1417C31.7504 20.9064 31.7537 21.8199 31.5721 22.9346L31.5592 23.0161V23.7301L32.134 24.0451C32.5726 24.2598 32.9669 24.5507 33.2975 24.9028C33.7891 25.4444 34.1068 26.1334 34.2413 26.9498C34.3801 27.7897 34.3342 28.7889 34.1068 29.9198C33.8448 31.2209 33.4207 32.3544 32.8486 33.2815C32.3436 34.1126 31.6645 34.8318 30.8553 35.3939C30.0952 35.9157 29.1915 36.3116 28.1705 36.5655C27.1809 36.8146 26.0524 36.9405 24.8148 36.9405H24.0175C23.447 36.9405 22.8933 37.139 22.4585 37.4952C22.0241 37.8551 21.7362 38.3518 21.646 38.8977L21.586 39.2137L20.5769 45.3981L20.531 45.6254C20.5191 45.6974 20.4981 45.733 20.4678 45.7575C20.4381 45.781 20.4014 45.7941 20.363 45.7946H15.4397L15.438 45.793Z" fill="#253B80"/>
<path d="M32.6771 23.0986C32.6463 23.2877 32.6117 23.481 32.5723 23.6795C31.2213 30.3878 26.5982 32.7049 20.6939 32.7049H17.6877C16.9654 32.7049 16.3572 33.2121 16.2448 33.9005L14.7058 43.3391L14.2698 46.0145C14.2034 46.4204 14.4897 46.8012 14.9094 46.8654C14.9489 46.8717 14.9888 46.8743 15.0294 46.8743H20.3611C20.9926 46.8743 21.529 46.4308 21.6284 45.8286L21.6808 45.5669L22.6845 39.407L22.7488 39.069C22.8471 38.4647 23.3846 38.0212 24.0161 38.0212H24.8134C29.9794 38.0212 34.0233 35.9935 35.2052 30.1251C35.699 27.6738 35.4435 25.6267 34.1367 24.1872C33.7224 23.7416 33.2281 23.3734 32.6771 23.0992V23.0986Z" fill="#179BD7"/>
<path d="M31.2638 22.5534C30.8322 22.4327 30.3936 22.3387 29.9495 22.2713C29.0728 22.1413 28.1863 22.0786 27.2993 22.0843H19.2682C18.6367 22.0843 18.0992 22.5289 18.0019 23.1322L16.2933 33.5951L16.2441 33.9001C16.3543 33.2117 16.9669 32.7039 17.687 32.7045H20.6932C26.5976 32.7045 31.2201 30.3858 32.5716 23.679C32.6122 23.4805 32.6462 23.2873 32.6764 23.0982C32.3199 22.9175 31.9483 22.766 31.5653 22.6453C31.4648 22.613 31.3643 22.5827 31.2627 22.5534H31.2638Z" fill="#222D65"/>
<path d="M18.0022 23.1317C18.0983 22.5279 18.6364 22.0829 19.2684 22.085H27.2996C28.2508 22.085 29.1389 22.145 29.9498 22.272C30.4981 22.3555 31.0393 22.4798 31.5677 22.6449C31.9663 22.7729 32.3369 22.9238 32.6789 23.0978C33.0808 20.6188 32.6756 18.9311 31.2895 17.4027C29.7602 15.7203 27.0019 15 23.4728 15H13.2263C12.5051 15 11.8904 15.5072 11.7791 16.1967L7.51099 42.3542C7.43482 42.8185 7.76272 43.2547 8.24296 43.3283C8.28834 43.3351 8.33371 43.3388 8.37963 43.3388H14.7054L16.2935 33.5951L18.0022 23.1322V23.1317Z" fill="#253B80"/>
</svg>
