<svg width="150" height="60" viewBox="0 0 150 60" fill="none" xmlns="http://www.w3.org/2000/svg">
<path d="M27.1059 33.5801C27.1059 34.145 26.645 34.6059 26.0851 34.6059H18.9248C18.3599 34.6059 17.904 34.145 17.904 33.5801V26.4199C17.904 25.855 18.3649 25.3991 18.9248 25.3991H26.0851C26.645 25.3991 27.1059 25.8599 27.1059 26.4199V33.5801ZM33.2404 38.9516C33.2404 39.9327 32.4377 40.7355 31.4516 40.7355H13.5484C12.5673 40.7355 11.7596 39.9327 11.7596 38.9516V21.0534C11.7596 20.0722 12.5623 19.2645 13.5484 19.2645H31.4516C32.4377 19.2645 33.2404 20.0673 33.2404 21.0534V38.9566V38.9516ZM33.7508 13.125H11.2492C8.15712 13.125 5.625 15.6571 5.625 18.7492V41.2508C5.625 44.3429 8.15712 46.875 11.2492 46.875H33.7508C36.8429 46.875 39.375 44.3429 39.375 41.2508V18.7492C39.375 15.6522 36.8429 13.125 33.7508 13.125Z" fill="black"/>
<path d="M54.9992 41.082C52.9972 41.082 51.0746 40.309 49.7169 38.9562C48.5078 37.7471 47.8389 36.1813 47.8389 34.5411H49.8656C49.8656 35.6411 50.3214 36.7016 51.149 37.5241C52.1251 38.4954 53.5324 39.0553 54.9992 39.0553H55.014C57.8435 39.0553 60.1427 37.0782 60.1427 34.6452C60.1427 32.8216 59.1318 31.3747 54.2261 30.235C52.2292 29.7742 50.8814 29.1548 49.9845 28.2876C49.0281 27.361 48.5623 26.1321 48.5623 24.5216C48.5623 21.3503 51.4066 18.7637 54.905 18.7637C56.5799 18.7637 58.1606 19.3385 59.3548 20.389C60.5886 21.4692 61.2675 22.931 61.2675 24.4969H59.2408C59.2408 22.4504 57.2984 20.7904 54.905 20.7904C52.5116 20.7904 50.589 22.4999 50.589 24.5216C50.589 26.3699 51.2233 27.4551 54.687 28.2579C58.3836 29.1102 62.1644 30.5373 62.1743 34.6352C62.1743 36.3795 61.4162 38.0097 60.0436 39.2238C58.7007 40.413 56.9168 41.0671 55.019 41.0671H54.9992V41.082Z" fill="black"/>
<path d="M72.8473 26.7221C69.2102 26.7221 66.579 29.4376 66.579 33.05C66.579 36.6623 69.2647 39.2638 72.8473 39.2638C76.4299 39.2638 78.9769 36.4344 78.9769 33.0202C78.9769 29.6061 76.3209 26.7221 72.8473 26.7221ZM78.8679 46.8502V37.9754H78.8084C77.4953 39.9873 75.2308 41.0229 72.8473 41.0229C68.2588 41.0229 64.6167 37.579 64.6167 32.9608C64.6167 28.3425 68.343 24.9531 72.8473 24.9531C75.2308 24.9531 77.4953 25.9888 78.8084 28.0303H78.8679V25.3446H80.8302V46.8453H78.8679V46.8502Z" fill="black"/>
<path d="M108.941 26.7221C105.304 26.7221 102.673 29.4375 102.673 33.0499C102.673 36.6622 105.358 39.2637 108.941 39.2637C112.524 39.2637 115.071 36.4343 115.071 33.0202C115.071 29.606 112.415 26.7221 108.941 26.7221ZM114.962 40.6611V37.9754H114.902C113.559 39.9872 111.32 41.0228 108.941 41.0228C104.353 41.0228 100.71 37.579 100.71 32.9656C100.71 28.3523 104.432 24.958 108.941 24.958C111.349 24.958 113.589 25.9689 114.902 28.0402H114.962V25.3544H116.919V40.6661H114.962V40.6611Z" fill="black"/>
<path d="M122.791 31.7021V40.6611H120.829V25.3495H122.791V27.5595H122.846C123.688 25.6022 125.17 25.0968 127.157 24.958V27.0293C124.471 27.2523 122.791 28.9569 122.791 31.7021Z" fill="black"/>
<path d="M135.927 26.7178C132.875 26.7178 130.442 28.9576 129.961 31.9505H141.913C141.408 28.9526 139.004 26.7178 135.922 26.7178M143.895 33.7146H129.956C130.095 36.7373 132.9 39.2545 135.893 39.2545C138.241 39.2545 140.541 37.9117 141.378 35.6422H143.444C142.329 38.8333 139.307 41.0136 135.917 41.0136C131.497 41.0136 127.939 37.4062 127.939 33.006C127.939 28.6058 131.492 24.9438 135.888 24.9438C140.283 24.9438 143.925 28.7247 143.925 33.1497C143.925 33.3429 143.89 33.5114 143.89 33.7096" fill="black"/>
<path d="M96.0329 40.6808V38.2874H95.9784C95.0766 40.1754 93.0796 41.0475 91.0579 41.0475C89.0362 41.0475 87.0343 40.3439 85.7707 38.7433C84.6756 37.3658 84.4229 35.5076 84.4229 33.7931V25.2998H86.3901V33.7633C86.3901 36.9396 87.5446 39.2785 91.0579 39.2785C92.3512 39.2785 93.3621 38.9366 94.3184 38.0397C95.6712 36.7464 95.919 35.2251 95.919 33.4313V25.3048H97.8911V40.6907H96.0329V40.6808Z" fill="black"/>
</svg>
