<svg width="24" height="24" viewBox="0 0 24 24" fill="none" xmlns="http://www.w3.org/2000/svg">
<path fill-rule="evenodd" clip-rule="evenodd" d="M12 24C18.6274 24 24 18.6274 24 12C24 5.37258 18.6274 0 12 0C5.37258 0 0 5.37258 0 12C0 18.6274 5.37258 24 12 24ZM17.1859 7.20854C17.0193 7.1859 16.8498 7.20846 16.6949 7.27389L5.9748 11.8027C5.22753 12.1185 5.18929 13.2029 5.97543 13.53C6.55719 13.7721 7.26998 13.9709 8.03857 14.0992C8.45985 14.1697 8.81217 14.0992 9.48797 13.6866C10.254 13.2186 12.5711 11.5562 14.0142 10.4629C14.5954 10.0226 14.8198 10.2988 14.3277 10.7774C14.1571 10.9432 13.969 11.1244 13.7712 11.3151C12.5148 12.5257 10.8609 14.1193 10.7418 14.5905C10.5813 15.2283 11.8871 16.1246 12.3134 16.4045C13.166 16.9637 14.1139 17.4996 14.7521 17.8475C15.515 18.2632 16.4278 17.7846 16.5657 16.9499L17.9875 8.29665C18.0148 8.13024 17.9971 7.95953 17.9364 7.8023C17.8756 7.64507 17.7739 7.50706 17.6419 7.40263C17.5099 7.29821 17.3525 7.23119 17.1859 7.20854Z" fill="#F5FEFF"/>
</svg>
