<svg width="150" height="60" viewBox="0 0 150 60" fill="none" xmlns="http://www.w3.org/2000/svg">
<path fill-rule="evenodd" clip-rule="evenodd" d="M44.6807 48.5025H34.2927L26.5029 17.9101C26.1332 16.5029 25.3481 15.2588 24.1933 14.6724C21.3114 13.1989 18.1358 12.0262 14.6714 11.4347V10.2569H31.4057C33.7153 10.2569 35.4474 12.0262 35.7361 14.081L39.7779 36.1483L50.1609 10.2569H60.2602L44.6807 48.5025ZM66.034 48.5025H56.2234L64.3018 10.2569H74.1124L66.034 48.5025ZM86.8051 20.8523C87.0938 18.7924 88.826 17.6146 90.8468 17.6146C94.0225 17.3188 97.4818 17.9103 100.369 19.3787L102.101 11.1443C99.214 9.96645 96.0383 9.375 93.1564 9.375C83.6345 9.375 76.7058 14.6726 76.7058 22.025C76.7058 27.6183 81.6136 30.5552 85.078 32.3244C88.826 34.0886 90.2694 35.2664 89.9808 37.0306C89.9808 39.6768 87.0938 40.8546 84.2119 40.8546C80.7475 40.8546 77.2831 39.9725 74.1125 38.499L72.3804 46.7386C75.8447 48.207 79.5927 48.7984 83.0571 48.7984C93.7338 49.0891 100.369 43.7966 100.369 35.8527C100.369 25.849 86.8051 25.2627 86.8051 20.8523ZM134.703 48.5025L126.914 10.2569H118.547C116.814 10.2569 115.082 11.4347 114.505 13.1989L100.08 48.5025H110.179L112.195 42.9143H124.604L125.759 48.5025H134.703ZM119.99 20.5567L122.872 34.9709H114.793L119.99 20.5567Z" fill="#172B85"/>
</svg>
