<svg width="24" height="24" viewBox="0 0 24 24" fill="none" xmlns="http://www.w3.org/2000/svg">
<path fill-rule="evenodd" clip-rule="evenodd" d="M12 24C18.6274 24 24 18.6274 24 12C24 5.37258 18.6274 0 12 0C5.37258 0 0 5.37258 0 12C0 18.6274 5.37258 24 12 24ZM13.8074 7.03988C13.2124 7.01513 12.5985 7 12 7C11.3971 7.00089 10.7943 7.01418 10.1919 7.03988L9.4891 7.07288L8.8157 7.11206L8.1857 7.154L7.611 7.198C6.98669 7.2451 6.39928 7.50687 5.95206 7.9373C5.50485 8.36772 5.22648 8.93923 5.1659 9.55131C5.1561 9.64619 5.147 9.74312 5.1379 9.8435L5.0854 10.4691C5.0364 11.1174 5 11.8242 5 12.5C5.00339 13.1778 5.03188 13.8552 5.0854 14.5309L5.1379 15.1565L5.1659 15.4487C5.2265 16.0609 5.50498 16.6325 5.95233 17.0629C6.39969 17.4933 6.98727 17.7551 7.6117 17.802L8.1871 17.8453L8.8171 17.8879L9.4898 17.9271L10.1926 17.9601C10.7947 17.9858 11.3973 17.9991 12 18C12.6027 17.9991 13.2053 17.9858 13.8074 17.9601L14.5102 17.9271L15.1836 17.8879L15.8136 17.8453L16.3876 17.802C17.0122 17.7552 17.5999 17.4936 18.0474 17.0631C18.4949 16.6327 18.7735 16.061 18.8341 15.4487C18.8439 15.3538 18.853 15.2569 18.8621 15.1565L18.9146 14.5309C18.9636 13.8826 19 13.1758 19 12.5C19 11.8242 18.9636 11.1174 18.9146 10.4691L18.8621 9.8435L18.8341 9.55131C18.7735 8.93912 18.495 8.36753 18.0477 7.93709C17.6003 7.50665 17.0127 7.24494 16.3883 7.198L15.8129 7.154L15.1829 7.11206L14.5102 7.07288L13.8074 7.03988ZM10.6 10.8335V10.833C10.6 10.7607 10.6194 10.6897 10.6562 10.6272C10.693 10.5644 10.746 10.5123 10.8099 10.4761C10.8737 10.4398 10.9462 10.4207 11.0199 10.4207C11.0937 10.4207 11.1661 10.4398 11.23 10.476L14.17 12.1425C14.234 12.1787 14.2871 12.2308 14.3241 12.2935C14.361 12.3563 14.3805 12.4275 14.3805 12.5C14.3805 12.5725 14.361 12.6437 14.3241 12.7065C14.2871 12.7692 14.234 12.8213 14.17 12.8575L11.23 14.5247C10.95 14.6828 10.6 14.4848 10.6 14.1672V10.8335Z" fill="#F5FEFF"/>
</svg>
